<svg xmlns="http://www.w3.org/2000/svg" viewBox="0 0 384 512" width="20" height="20" fill="currentColor">
  <path d="M318.7 268.7c-.2-36.7 16.4-64.4 50-84.8-18.8-26.9-47.2-41.7-84.7-44.6-35.5-2.8-74.3 20.7-88.5 20.7-15 0-49.4-19.7-76.4-19.7C63.3 141.2 4 184.8 4 273.5q0 51.3 19.2 102.2c16.1 47.9 74.3 165.4 135.2 163.5 32.5-.8 55.5-21.6 94.5-21.6s62.2 21.6 94.5 21.6c61-1.7 119.6-115.6 135.2-163.5 12.5-30.5 18.8-63.1 18.8-96.1-.1-2.8-.1-5.7-.1-8.5zM256.1 87.8c19.5-23.3 32.5-55.4 29-87.8-28.2 1.1-62.4 18.8-82.6 41.9-18.3 20.9-34.3 54.1-30 86.5 31.8 2.5 64.2-18.9 83.6-40.6z"/>
</svg>
